<svg width="24" height="24" viewBox="0 0 24 24" fill="none" xmlns="http://www.w3.org/2000/svg">
<g clip-path="url(#clip0_5249_39382)">
<path d="M10.9341 2.08596C11.9053 2.08594 12.8573 2.35701 13.6829 2.86865C14.5084 3.38029 15.1748 4.11219 15.607 4.98199C16.0392 5.85178 16.22 6.82494 16.1292 7.79193C16.0383 8.75892 15.6794 9.68136 15.0927 10.4554H14.3309C14.0428 10.4554 13.8091 10.2218 13.8091 9.93364V7.37271C13.8164 6.99047 13.7474 6.61062 13.6062 6.25537C13.4649 5.90011 13.2543 5.57657 12.9865 5.30368C12.7188 5.03079 12.3993 4.81402 12.0468 4.66603C11.6943 4.51805 11.3159 4.44183 10.9336 4.44183C10.5513 4.44183 10.1728 4.51805 9.82029 4.66603C9.46779 4.81402 9.14833 5.03079 8.88058 5.30368C8.61284 5.57657 8.40219 5.90011 8.26095 6.25537C8.11971 6.61062 8.05071 6.99047 8.05799 7.37271V11.6587C7.12149 11.0406 6.4092 10.137 6.02678 9.0821C5.64437 8.02717 5.61222 6.87708 5.93509 5.80244C6.25796 4.7278 6.91866 3.78587 7.81916 3.11639C8.71966 2.44692 9.81199 2.08557 10.9341 2.08596ZM17.1027 11.2172C17.9032 9.95489 18.2972 8.47734 18.2315 6.984C18.1658 5.49066 17.6436 4.05341 16.7353 2.86623C15.827 1.67905 14.5764 0.799079 13.1522 0.345082C11.7281 -0.108916 10.1989 -0.115087 8.7711 0.327402C7.34331 0.76989 6.08563 1.63974 5.16779 2.81955C4.24995 3.99936 3.71614 5.43235 3.6384 6.92511C3.56066 8.41787 3.94273 9.89855 4.73305 11.1673C5.52337 12.4361 6.68389 13.4319 8.05799 14.0203V15.2392L5.81952 14.7414C5.43332 14.6557 5.03023 14.6888 4.66316 14.8363C4.2961 14.9838 3.98219 15.2388 3.76264 15.5679C3.17551 16.4489 3.21455 17.606 3.85973 18.4454L7.26592 22.8771C7.53478 23.2262 7.88015 23.509 8.27547 23.7037C8.67078 23.8984 9.10549 23.9997 9.54613 24H16.9409C18.1796 24 19.2785 23.2069 19.6699 22.0329L21.5306 16.4497C21.7388 15.823 21.7254 15.1436 21.4925 14.5256C21.2595 13.9076 20.8213 13.3884 20.2511 13.055L17.1027 11.2172ZM10.9341 6.58377C11.3693 6.58377 11.722 6.93649 11.722 7.37271V9.41186C11.722 11.1409 13.1237 12.5426 14.8527 12.5426H15.0186C15.1583 12.5428 15.2955 12.5799 15.4162 12.6501L19.1992 14.8572C19.5217 15.0451 19.6688 15.4343 19.5498 15.7891L17.6902 21.3723C17.6374 21.5294 17.5368 21.666 17.4024 21.7629C17.268 21.8599 17.1066 21.9123 16.9409 21.9128H9.54613C9.4252 21.9127 9.30591 21.8848 9.19739 21.8315C9.08886 21.7781 8.99398 21.7006 8.91999 21.605L5.34574 16.9548L5.4501 16.7983L7.60513 17.2773C8.90861 17.567 10.1451 16.5751 10.1451 15.2399V7.37167C10.1451 6.93545 10.4979 6.58377 10.9341 6.58377Z" fill="#7E8BA6" stroke="white" stroke-width="0.521788"/>
</g>
<defs>
<clipPath id="clip0_5249_39382">
<rect width="24" height="24" fill="white"/>
</clipPath>
</defs>
</svg>
